<svg width="100" height="40" viewBox="0 0 100 40" fill="none" xmlns="http://www.w3.org/2000/svg">
<rect width="100" height="40" rx="6" fill="#FEF6E7"/>
<path d="M21.6736 23.18V21.178L26.1956 14.976H28.7716V21.094H29.9616V23.18H28.7716V25H26.3496V23.18H21.6736ZM26.5456 17.748L24.1096 21.094H26.5456V17.748ZM31.0519 19.946C31.0519 21.4953 31.3645 22.7227 31.9899 23.628C32.6152 24.5333 33.6139 24.986 34.9859 24.986C36.3485 24.986 37.3425 24.5333 37.9679 23.628C38.6025 22.7227 38.9199 21.4953 38.9199 19.946C38.9199 18.406 38.6025 17.188 37.9679 16.292C37.3425 15.3867 36.3485 14.934 34.9859 14.934C33.6139 14.934 32.6152 15.3867 31.9899 16.292C31.3645 17.188 31.0519 18.406 31.0519 19.946ZM36.5399 19.946C36.5399 20.8327 36.4325 21.5187 36.2179 22.004C36.0125 22.48 35.6019 22.718 34.9859 22.718C34.3605 22.718 33.9405 22.48 33.7259 22.004C33.5112 21.5187 33.4039 20.8327 33.4039 19.946C33.4039 19.0687 33.5112 18.392 33.7259 17.916C33.9405 17.44 34.3605 17.202 34.9859 17.202C35.6019 17.202 36.0125 17.44 36.2179 17.916C36.4325 18.3827 36.5399 19.0593 36.5399 19.946ZM42.1756 14.934C42.857 14.934 43.4123 15.1393 43.8416 15.55C44.2803 15.9607 44.4996 16.5393 44.4996 17.286C44.4996 18.0327 44.2803 18.6113 43.8416 19.022C43.4123 19.4327 42.857 19.638 42.1756 19.638C41.4756 19.638 40.9063 19.4327 40.4676 19.022C40.0383 18.6113 39.8236 18.0327 39.8236 17.286C39.8236 16.5393 40.0383 15.9607 40.4676 15.55C40.9063 15.1393 41.4756 14.934 42.1756 14.934ZM48.9656 15.074L43.5616 25H41.2516L46.6556 15.074H48.9656ZM41.4196 17.286C41.4196 17.5753 41.485 17.804 41.6156 17.972C41.7463 18.1307 41.9236 18.21 42.1476 18.21C42.381 18.21 42.5676 18.1307 42.7076 17.972C42.8476 17.804 42.9176 17.5753 42.9176 17.286C42.9176 16.9967 42.8476 16.7727 42.7076 16.614C42.5676 16.446 42.381 16.362 42.1476 16.362C41.9236 16.362 41.7463 16.446 41.6156 16.614C41.485 16.7727 41.4196 16.9967 41.4196 17.286ZM48.0556 20.422C48.7463 20.422 49.3063 20.6273 49.7356 21.038C50.165 21.4487 50.3796 22.0273 50.3796 22.774C50.3796 23.5207 50.165 24.104 49.7356 24.524C49.3063 24.9347 48.7463 25.14 48.0556 25.14C47.3743 25.14 46.8143 24.9347 46.3756 24.524C45.9463 24.104 45.7316 23.5207 45.7316 22.774C45.7316 22.0273 45.9463 21.4487 46.3756 21.038C46.8143 20.6273 47.3743 20.422 48.0556 20.422ZM47.3136 22.774C47.3136 23.0727 47.379 23.306 47.5096 23.474C47.6403 23.6327 47.8223 23.712 48.0556 23.712C48.2796 23.712 48.457 23.6327 48.5876 23.474C48.7276 23.306 48.7976 23.0727 48.7976 22.774C48.7976 22.4847 48.7276 22.2607 48.5876 22.102C48.457 21.934 48.2796 21.85 48.0556 21.85C47.8223 21.85 47.6403 21.934 47.5096 22.102C47.379 22.2607 47.3136 22.4847 47.3136 22.774ZM59.0583 14.948C59.9917 14.948 60.8363 15.1673 61.5923 15.606C62.3577 16.0353 62.9597 16.6373 63.3983 17.412C63.837 18.1773 64.0563 19.0453 64.0563 20.016C64.0563 20.9867 63.8323 21.8593 63.3843 22.634C62.9457 23.4087 62.3437 24.0153 61.5783 24.454C60.8223 24.8833 59.9823 25.098 59.0583 25.098C58.1343 25.098 57.2897 24.8833 56.5243 24.454C55.7683 24.0153 55.1663 23.4087 54.7183 22.634C54.2797 21.8593 54.0603 20.9867 54.0603 20.016C54.0603 19.0453 54.2797 18.1773 54.7183 17.412C55.1663 16.6373 55.7683 16.0353 56.5243 15.606C57.2897 15.1673 58.1343 14.948 59.0583 14.948ZM59.0583 17.174C58.2743 17.174 57.649 17.4307 57.1823 17.944C56.725 18.448 56.4963 19.1387 56.4963 20.016C56.4963 20.884 56.725 21.5747 57.1823 22.088C57.649 22.6013 58.2743 22.858 59.0583 22.858C59.833 22.858 60.4537 22.6013 60.9203 22.088C61.387 21.5747 61.6203 20.884 61.6203 20.016C61.6203 19.148 61.387 18.4573 60.9203 17.944C60.463 17.4307 59.8423 17.174 59.0583 17.174ZM71.8552 15.102V17.006H67.7952V19.176H70.9312V20.996H67.7952V25H65.4012V15.102H71.8552ZM79.5388 15.102V17.006H75.4788V19.176H78.6148V20.996H75.4788V25H73.0848V15.102H79.5388Z" fill="#FBB900"/>
</svg>
